<?xml version="1.0" encoding="utf-8"?>
<!-- Generator: Adobe Illustrator 18.1.0, SVG Export Plug-In . SVG Version: 6.00 Build 0)  -->
<svg version="1.1" id="Layer_1" xmlns="http://www.w3.org/2000/svg" xmlns:xlink="http://www.w3.org/1999/xlink" x="0px" y="0px"
	 viewBox="0 0 850.4 850.4" enable-background="new 0 0 850.4 850.4" xml:space="preserve">
<polygon fill="#CFD5E0" points="241.4,395.7 220.4,379.6 358.3,200.7 492.7,330.7 620.2,228.8 636.7,249.6 491,366.1 361.2,240.5 
	"/>
<g>
	<path fill="#ED4249" d="M665.5,649h-83c-2,0-3.5-1.5-3.5-3.5V344.5c0-2,1.5-3.5,3.5-3.5h83c2,0,3.5,1.5,3.5,3.5v300.9
		C669,647.3,667.5,649,665.5,649z"/>
	<path fill="#ED4249" d="M533.4,649h-83c-2,0-3.5-1.5-3.5-3.5V432.9c0-2,1.5-3.5,3.5-3.5h83c2,0,3.5,1.5,3.5,3.5v212.5
		C536.8,647.3,535.3,649,533.4,649z"/>
	<path fill="#ED4249" d="M401.2,649h-83c-2,0-3.5-1.5-3.5-3.5V325.3c0-2,1.5-3.5,3.5-3.5h83c2,0,3.5,1.5,3.5,3.5v320.1
		C404.8,647.3,403.3,649,401.2,649z"/>
	<path fill="#ED4249" d="M269.2,649h-83c-2,0-3.5-1.5-3.5-3.5V487.7c0-2,1.5-3.5,3.5-3.5h83c2,0,3.5,1.5,3.5,3.5v157.8
		C272.8,647.3,271.1,649,269.2,649z"/>
</g>
<rect x="124.1" y="634.8" fill="#CFD5E0" width="603.5" height="28.8"/>
<circle fill="#E7E9ED" cx="628.4" cy="239.3" r="49.5"/>
<circle fill="#92BCBD" cx="628.4" cy="239.3" r="28.8"/>
<circle fill="#E7E9ED" cx="491.8" cy="343.5" r="49.5"/>
<circle fill="#92BCBD" cx="491.8" cy="343.5" r="28.8"/>
<circle fill="#E7E9ED" cx="359.8" cy="220.6" r="49.5"/>
<circle fill="#92BCBD" cx="359.8" cy="220.6" r="28.8"/>
<circle fill="#E7E9ED" cx="227.6" cy="387.6" r="49.5"/>
<circle fill="#92BCBD" cx="227.6" cy="387.6" r="28.8"/>
</svg>
