<?xml version="1.0" encoding="utf-8"?>
<!-- Generator: Adobe Illustrator 21.1.0, SVG Export Plug-In . SVG Version: 6.00 Build 0)  -->
<svg version="1.1" id="Layer_1" xmlns="http://www.w3.org/2000/svg" xmlns:xlink="http://www.w3.org/1999/xlink" x="0px" y="0px"
	 viewBox="0 0 850.4 850.4" style="enable-background:new 0 0 850.4 850.4;" xml:space="preserve">
<style type="text/css">
	.st0{fill:#E4E7ED;}
	.st1{fill:#B8C0CC;}
	.st2{fill:#F99898;}
	.st3{fill:#ED4148;}
</style>
<path class="st0" d="M99,373.9v446.5c448,0,209.8,0,654.9,0V373.9l-333-266.3L99,373.9z"/>
<g>
	<polygon class="st1" points="99,373.9 99,442.8 426.4,178.2 753.9,442.9 753.9,373.9 420.9,107.6 	"/>
	<polygon class="st1" points="588.7,83.7 709,83.7 709,243.9 588.7,243.9 	"/>
</g>
<path class="st2" d="M426.4,455.8L426.4,455.8c72.9,0,132.5,59.6,132.5,132.4v232.2H294.1V588.2
	C294.1,515.4,353.7,455.8,426.4,455.8z"/>
<g>
	<path class="st3" d="M487.6,470.9c42.3,22.2,71.3,66.6,71.3,117.3v232.2H326V607.1c0-76.1,62.2-138.2,138.2-138.2l0,0
		C472.2,468.9,480,469.6,487.6,470.9z"/>
	<polygon class="st3" points="426.4,13.7 425.5,12.9 2.6,354.8 54.2,414.8 426.4,114 798.7,414.8 850.4,354.8 427.4,12.9 	"/>
</g>
</svg>
